<svg width="63" height="37" viewBox="0 0 63 37" fill="none" xmlns="http://www.w3.org/2000/svg">
<g id="Group 1">
<g id="Group" style="mix-blend-mode:multiply" opacity="0.75">
<g id="Vector" style="mix-blend-mode:multiply" opacity="0.75">
<path d="M51.1993 34.3166H11.8007C9.06961 34.3138 6.4511 33.1843 4.51991 31.1759C2.58872 29.1674 1.50262 26.4442 1.5 23.6038M11.8007 1.65247H51.1993C53.9304 1.6552 56.5489 2.78473 58.4801 4.79317C60.4113 6.80161 61.4974 9.52486 61.5 12.3652" stroke="black" stroke-width="1.5" stroke-linecap="round" stroke-linejoin="round"/>
</g>
<g id="Vector_2" style="mix-blend-mode:multiply" opacity="0.75">
<path d="M49.524 6.77698H13.4863C9.58783 6.77698 6.42749 10.0637 6.42749 14.1182V21.8511C6.42749 25.9056 9.58783 29.1923 13.4863 29.1923H49.524C53.4225 29.1923 56.5828 25.9056 56.5828 21.8511V14.1182C56.5828 10.0637 53.4225 6.77698 49.524 6.77698Z" stroke="black" stroke-width="1.5" stroke-linecap="round" stroke-linejoin="round"/>
</g>
<g id="Vector_3" style="mix-blend-mode:multiply" opacity="0.75">
<path d="M23.103 7.90077V29.1922M39.8975 7.90076V29.1922" stroke="black" stroke-width="1.5" stroke-linecap="round" stroke-linejoin="round"/>
</g>
<g id="&#60;&#208;&#161;&#208;&#190;&#209;&#129;&#209;&#130;&#208;&#176;&#208;&#178;&#208;&#189;&#208;&#190;&#208;&#185; &#208;&#186;&#208;&#190;&#208;&#189;&#209;&#130;&#209;&#131;&#209;&#128;&#62;" style="mix-blend-mode:multiply" opacity="0.75">
<path d="M20.5151 13.9735C20.3423 14.3969 20.1471 14.81 19.9301 15.2108L19.603 15.7985L19.256 16.3862L19.0081 16.7883L18.7603 17.1904L18.2051 18.0875C17.8933 18.6019 17.6119 19.1356 17.3624 19.6856L15.4787 23.8099H11.404C11.2589 23.8124 11.1146 23.7879 10.9777 23.7377C10.9133 23.7146 10.8585 23.6693 10.8224 23.6092C10.7864 23.5491 10.7712 23.478 10.7794 23.4077V23.2943C10.7822 23.2704 10.7822 23.2461 10.7794 23.2222C11.0545 21.9467 11.5775 20.7432 12.3161 19.6856C13.5256 18.1493 15.1813 17.1801 16.5792 15.8604C16.8369 15.6232 17.0848 15.3861 17.3227 15.1283C17.3227 15.1283 17.6301 14.7777 17.5309 14.7881C17.2236 14.7881 10.5911 15.0252 10.5911 15.0252C10.5911 15.0252 11.1363 13.0559 11.2454 12.8187C11.2939 12.7223 11.3656 12.6406 11.4536 12.5816C11.525 12.5351 11.6073 12.5102 11.6915 12.5094H11.7411C12.1076 12.5301 12.475 12.5301 12.8416 12.5094H20.7728V12.9734C20.7328 13.3177 20.646 13.6545 20.5151 13.9735V13.9735ZM36.3974 13.9735C36.2247 14.3969 36.0294 14.81 35.8125 15.2108L35.4853 15.7985L35.1383 16.3862L34.8905 16.7883L34.6426 17.1904L34.0874 18.0875C33.7889 18.6063 33.5207 19.1435 33.2844 19.6959L31.4007 23.8202H27.2864C27.1413 23.8227 26.9969 23.7982 26.8601 23.748C26.7957 23.7249 26.7409 23.6796 26.7048 23.6195C26.6687 23.5595 26.6535 23.4883 26.6618 23.4181V23.2943C26.6646 23.2704 26.6646 23.2461 26.6618 23.2222C26.9369 21.9467 27.4598 20.7432 28.1985 19.6856C29.408 18.1493 31.0636 17.1801 32.4615 15.8604C32.7193 15.6232 32.9671 15.3861 33.2051 15.1283C33.2051 15.1283 33.5124 14.7777 33.4133 14.7881C33.1059 14.7881 26.4734 15.0252 26.4734 15.0252C26.4734 15.0252 27.0187 13.0559 27.1277 12.8187C27.1762 12.7223 27.248 12.6406 27.3359 12.5816C27.4073 12.5351 27.4897 12.5102 27.5739 12.5094H27.6235C27.99 12.5301 28.3574 12.5301 28.7239 12.5094H36.6552V12.9734C36.6151 13.3177 36.5283 13.6545 36.3974 13.9735V13.9735ZM53.5983 13.9735C53.4256 14.3969 53.2303 14.81 53.0134 15.2108L52.6862 15.7985L52.3392 16.3862L52.0914 16.7883L51.8435 17.1904L51.2884 18.0875C50.9767 18.602 50.6952 19.1357 50.4457 19.6856L48.562 23.8099H44.4972C44.3521 23.8124 44.2077 23.7879 44.0709 23.7377C44.0065 23.7146 43.9517 23.6693 43.9156 23.6092C43.8795 23.5491 43.8644 23.478 43.8726 23.4077V23.2943C43.8754 23.2704 43.8754 23.2461 43.8726 23.2222C44.148 21.9468 44.6709 20.7434 45.4093 19.6856C46.6188 18.1493 48.2745 17.1801 49.6724 15.8604C49.9301 15.6232 50.178 15.3861 50.4159 15.1283C50.4159 15.1283 50.7233 14.7777 50.6241 14.7881C50.3168 14.7881 43.6843 15.0252 43.6843 15.0252C43.6843 15.0252 44.2295 13.0559 44.3386 12.8187C44.3871 12.7223 44.4588 12.6406 44.5468 12.5816C44.6182 12.5351 44.7005 12.5102 44.7847 12.5094H44.8343C45.2008 12.5301 45.5682 12.5301 45.9348 12.5094H53.866V12.9734C53.8228 13.3183 53.7327 13.655 53.5983 13.9735V13.9735Z" stroke="black" stroke-width="1.5" stroke-linecap="round" stroke-linejoin="round"/>
</g>
</g>
<path id="Vector_4" d="M51.1993 35.3476H11.8007C9.06961 35.3449 6.4511 34.2153 4.51991 32.2069C2.58872 30.1984 1.50262 27.4752 1.5 24.6348M11.8007 2.68347H51.1993C53.9304 2.6862 56.5489 3.81574 58.4801 5.82418C60.4113 7.83262 61.4974 10.5559 61.5 13.3962" stroke="#17EADA" stroke-width="1.5" stroke-linecap="round" stroke-linejoin="round"/>
<path id="Vector_5" d="M49.524 7.80798H13.4863C9.58783 7.80798 6.42749 11.0947 6.42749 15.1492V22.8821C6.42749 26.9366 9.58783 30.2233 13.4863 30.2233H49.524C53.4225 30.2233 56.5828 26.9366 56.5828 22.8821V15.1492C56.5828 11.0947 53.4225 7.80798 49.524 7.80798Z" stroke="#17EADA" stroke-width="1.5" stroke-linecap="round" stroke-linejoin="round"/>
<path id="Vector_6" d="M39.8975 7.80798V30.2233M23.103 7.80798V30.2233V7.80798Z" stroke="#17EADA" stroke-width="1.5" stroke-linecap="round" stroke-linejoin="round"/>
<path id="&#60;&#208;&#161;&#208;&#190;&#209;&#129;&#209;&#130;&#208;&#176;&#208;&#178;&#208;&#189;&#208;&#190;&#208;&#185; &#208;&#186;&#208;&#190;&#208;&#189;&#209;&#130;&#209;&#131;&#209;&#128;&#62;_2" d="M20.5151 15.0049C20.3423 15.4283 20.1471 15.8414 19.9301 16.2422L19.603 16.8299L19.256 17.4176L19.0081 17.8197L18.7603 18.2218L18.2051 19.1188C17.8933 19.6333 17.6119 20.167 17.3624 20.717L15.4787 24.8412H11.404C11.2589 24.8437 11.1146 24.8193 10.9777 24.7691C10.9133 24.746 10.8585 24.7006 10.8224 24.6406C10.7864 24.5805 10.7712 24.5094 10.7794 24.4391V24.3257C10.7822 24.3017 10.7822 24.2775 10.7794 24.2535C11.0545 22.9781 11.5775 21.7746 12.3161 20.717C13.5256 19.1807 15.1813 18.2115 16.5792 16.8917C16.8369 16.6546 17.0848 16.4174 17.3227 16.1597C17.3227 16.1597 17.6301 15.8091 17.5309 15.8194C17.2236 15.8194 10.5911 16.0566 10.5911 16.0566C10.5911 16.0566 11.1363 14.0872 11.2454 13.8501C11.2939 13.7536 11.3656 13.6719 11.4536 13.6129C11.525 13.5665 11.6073 13.5415 11.6915 13.5408H11.7411C12.1076 13.5615 12.475 13.5615 12.8416 13.5408H20.7728V14.0048C20.7328 14.3491 20.646 14.6858 20.5151 15.0049V15.0049ZM36.3974 15.0049C36.2247 15.4283 36.0294 15.8414 35.8125 16.2422L35.4853 16.8299L35.1383 17.4176L34.8905 17.8197L34.6426 18.2218L34.0874 19.1188C33.7889 19.6377 33.5207 20.1748 33.2844 20.7273L31.4007 24.8515H27.2864C27.1413 24.8541 26.9969 24.8296 26.8601 24.7794C26.7957 24.7563 26.7409 24.7109 26.7048 24.6509C26.6687 24.5908 26.6535 24.5197 26.6618 24.4494V24.3257C26.6646 24.3017 26.6646 24.2775 26.6618 24.2535C26.9369 22.9781 27.4598 21.7746 28.1985 20.717C29.408 19.1807 31.0636 18.2115 32.4615 16.8917C32.7193 16.6546 32.9671 16.4174 33.2051 16.1597C33.2051 16.1597 33.5124 15.8091 33.4133 15.8194C33.1059 15.8194 26.4734 16.0566 26.4734 16.0566C26.4734 16.0566 27.0187 14.0872 27.1277 13.8501C27.1762 13.7536 27.248 13.6719 27.3359 13.6129C27.4073 13.5665 27.4897 13.5415 27.5739 13.5408H27.6235C27.99 13.5615 28.3574 13.5615 28.7239 13.5408H36.6552V14.0048C36.6151 14.3491 36.5283 14.6858 36.3974 15.0049V15.0049ZM53.5983 15.0049C53.4256 15.4283 53.2303 15.8414 53.0134 16.2422L52.6862 16.8299L52.3392 17.4176L52.0914 17.8197L51.8435 18.2218L51.2884 19.1188C50.9767 19.6333 50.6952 20.167 50.4457 20.717L48.562 24.8412H44.4972C44.3521 24.8437 44.2077 24.8193 44.0709 24.7691C44.0065 24.746 43.9517 24.7006 43.9156 24.6406C43.8795 24.5805 43.8644 24.5094 43.8726 24.4391V24.3257C43.8754 24.3017 43.8754 24.2775 43.8726 24.2535C44.148 22.9782 44.6709 21.7747 45.4093 20.717C46.6188 19.1807 48.2745 18.2115 49.6724 16.8917C49.9301 16.6546 50.178 16.4174 50.4159 16.1597C50.4159 16.1597 50.7233 15.8091 50.6241 15.8194C50.3168 15.8194 43.6843 16.0566 43.6843 16.0566C43.6843 16.0566 44.2295 14.0872 44.3386 13.8501C44.3871 13.7536 44.4588 13.6719 44.5468 13.6129C44.6182 13.5665 44.7005 13.5415 44.7847 13.5408H44.8343C45.2008 13.5615 45.5682 13.5615 45.9348 13.5408H53.866V14.0048C53.8228 14.3496 53.7327 14.6864 53.5983 15.0049V15.0049Z" stroke="#17EADA" stroke-width="1.5" stroke-linecap="round" stroke-linejoin="round"/>
</g>
</svg>
