<svg width="58" height="47" viewBox="0 0 58 47" fill="none" xmlns="http://www.w3.org/2000/svg">
<g id="Group 2">
<g id="Group">
<path id="Vector" d="M35.0837 43.5241C35.0608 40.8112 35.2041 38.0995 35.5128 35.4041C35.9732 32.265 35.0733 28.2154 30.1657 27.9224C25.2581 27.6294 21.4807 26.7819 21.0412 22.7428M1.99687 43.5241C2.0311 40.8049 1.89831 38.0861 1.59925 35.3832C1.13883 32.244 2.17476 29.0421 6.9463 27.9015M24.0757 15.7111C23.7724 17.3889 23.2737 19.0254 22.5898 20.5872C21.8155 21.9162 18.917 24.8984 17.8602 24.7728C16.8033 24.6472 11.9376 21.7069 11.5818 19.3944C11.3307 17.7515 11.226 15.732 11.226 15.732" stroke="#DE593E" stroke-width="1.5" stroke-linecap="round" stroke-linejoin="round"/>
<path id="Vector_2" d="M24.0757 21.6964C25.0259 21.0954 25.8417 20.3046 26.4719 19.3735C27.5183 17.8143 28.345 14.2461 28.3345 11.1174C28.389 9.66327 28.0634 8.22002 27.39 6.93004C26.7166 5.64006 25.7185 4.5479 24.4942 3.76131C22.9511 2.82022 21.1938 2.28728 19.3879 2.21265C20.7457 3.57078 21.7421 5.24708 22.2864 7.08883C22.7782 11.9441 16.1859 13.1265 12.4712 13.3672C11.5021 13.5009 10.5776 13.8592 9.77153 14.4136M30.1343 28.3829C30.2926 29.8501 30.1357 31.3342 29.6739 32.7359C28.8996 35.6344 30.804 36.2413 30.804 39.7362C30.804 46.7052 22.6003 46.1401 20.9888 43.3986M17.2951 32.6312C18.1458 32.8779 19.0452 32.9046 19.9091 32.7088C20.7729 32.513 21.5729 32.101 22.234 31.5116C22.8361 30.8684 23.2801 30.0939 23.5307 29.2493C23.7814 28.4047 23.8318 27.5133 23.6781 26.6459M22.7991 9.45367C23.3582 11.0216 24.2507 12.4496 25.4151 13.6392L22.7991 9.45367ZM6.93581 20.671C3.90128 26.1855 11.1214 30.3292 12.5131 36.2831C14.2605 33.709 16.6986 30.1304 14.3443 25.7355L6.93581 20.671Z" stroke="#DE593E" stroke-width="1.5" stroke-linecap="round" stroke-linejoin="round"/>
<path id="Vector_3" d="M9.88697 24.7625C9.46841 19.6038 4.20506 18.6725 6.62223 9.3282C9.03939 -0.0160709 18.279 1.66862 18.279 1.66862M6.7164 28.383C6.55807 29.8502 6.71504 31.3343 7.17681 32.736C7.95114 35.6345 6.04671 36.2414 6.04671 39.7363C6.04671 46.7053 14.2504 46.1402 15.8619 43.3987M7.95114 44.759L7.22913 45.4496M29.2766 44.759L29.9986 45.4496" stroke="#DE593E" stroke-width="1.5" stroke-linecap="round" stroke-linejoin="round"/>
</g>
<path id="&#60;&#208;&#161;&#208;&#190;&#209;&#129;&#209;&#130;&#208;&#176;&#208;&#178;&#208;&#189;&#208;&#190;&#208;&#185; &#208;&#186;&#208;&#190;&#208;&#189;&#209;&#130;&#209;&#131;&#209;&#128;&#62;" d="M41.2472 34.0336V32.9872C40.6924 32.9856 40.149 32.8298 39.6776 32.5373L39.9287 31.8466C40.3685 32.1311 40.8805 32.2836 41.4042 32.2861C42.1366 32.2861 42.6284 31.8676 42.6284 31.2397C42.6284 30.6119 42.2308 30.3294 41.4669 30.0155C40.4205 29.6074 39.7718 29.1365 39.7718 28.2366C39.7919 27.8203 39.9656 27.4261 40.2594 27.1304C40.5531 26.8347 40.9461 26.6584 41.3623 26.6356V25.5892H42.0006V26.6356C42.4702 26.6376 42.9314 26.7601 43.34 26.9914L43.0784 27.6716C42.6859 27.4393 42.2369 27.3198 41.7809 27.3262C40.9856 27.3262 40.7345 27.7971 40.7345 28.2052C40.7345 28.6133 41.1112 29.0109 42.0111 29.3772C43.0575 29.8062 43.6016 30.3398 43.6016 31.2607C43.5932 31.7004 43.4232 32.1216 43.1241 32.4439C42.8249 32.7662 42.4175 32.9671 41.9797 33.0081V34.0545L41.2472 34.0336Z" stroke="#DE593E" stroke-width="1.5" stroke-linecap="round" stroke-linejoin="round"/>
<path id="Vector_4" d="M46.4058 43.9009L45.3594 40.9501C45.0978 40.2385 49.1578 37.8946 49.6392 38.4701L51.6273 40.8559M37.1767 15.5751L38.223 18.5573C38.4637 19.2793 34.3305 21.4976 33.8596 20.9012L31.9447 18.4108L37.1767 15.5751ZM51.3448 18.5468L49.252 20.9326C48.7707 21.5186 44.6793 19.227 44.9409 18.5154L45.9873 15.5855L51.3448 18.5468ZM56.221 32.6208L54.191 32.2859L53.1446 32.108C52.3912 31.9825 52.3703 27.2947 53.1446 27.1586L56.2 26.6145L56.221 32.6208Z" stroke="#DE593E" stroke-width="1.5" stroke-linecap="round" stroke-linejoin="round"/>
<path id="Vector_5" d="M41.5925 18.2122C41.9277 18.2122 42.1994 17.9405 42.1994 17.6053C42.1994 17.2701 41.9277 16.9984 41.5925 16.9984C41.2573 16.9984 40.9856 17.2701 40.9856 17.6053C40.9856 17.9405 41.2573 18.2122 41.5925 18.2122Z" fill="#DE593E"/>
<path id="Vector_6" d="M31.5158 24.0778C31.6815 23.7864 31.5795 23.4159 31.2882 23.2503C30.9968 23.0846 30.6263 23.1865 30.4606 23.4779C30.2949 23.7693 30.3969 24.1398 30.6882 24.3055C30.9796 24.4711 31.3501 24.3692 31.5158 24.0778Z" fill="#DE593E"/>
<path id="Vector_7" d="M41.5925 42.614C41.9277 42.614 42.1994 42.3422 42.1994 42.0071C42.1994 41.6719 41.9277 41.4001 41.5925 41.4001C41.2573 41.4001 40.9856 41.6719 40.9856 42.0071C40.9856 42.3422 41.2573 42.614 41.5925 42.614Z" fill="#DE593E"/>
<path id="Vector_8" d="M52.6346 36.3024C52.8045 36.0135 52.708 35.6415 52.4191 35.4716C52.1302 35.3017 51.7582 35.3981 51.5883 35.6871C51.4184 35.976 51.5149 36.3479 51.8038 36.5179C52.0927 36.6878 52.4647 36.5913 52.6346 36.3024Z" fill="#DE593E"/>
<path id="Vector_9" d="M39.6773 44.5705C42.4209 44.9274 45.2096 44.5134 47.7311 43.3749C50.2527 42.2363 52.4074 40.4183 53.9541 38.1243C55.5007 35.8304 56.3782 33.1511 56.4881 30.3867C56.5981 27.6222 55.9362 24.8817 54.5767 22.4722C53.2171 20.0626 51.2136 18.0791 48.7905 16.7439C46.3673 15.4087 43.6203 14.7745 40.8571 14.9123C38.0939 15.0501 35.4236 15.9545 33.1453 17.5242C30.8671 19.0938 29.0708 21.2668 27.9578 23.7997" stroke="#DE593E" stroke-width="1.5" stroke-linecap="round" stroke-linejoin="round"/>
<path id="Vector_10" d="M52.5245 24.3444C52.8165 24.1797 52.9197 23.8096 52.7551 23.5176C52.5904 23.2257 52.2203 23.1224 51.9283 23.2871C51.6363 23.4517 51.5331 23.8219 51.6978 24.1138C51.8624 24.4058 52.2326 24.509 52.5245 24.3444Z" fill="#DE593E"/>
<path id="Vector_11" d="M43.0991 38.4806V36.5971M40.5354 38.5748V36.5971M43.0991 22.9103V21.2256M40.5354 23.0045V21.2256M39.6774 38.4074C41.211 38.7515 42.8088 38.679 44.305 38.1976C45.8012 37.7162 47.1414 36.8433 48.1866 35.6694C49.2318 34.4955 49.9439 33.0634 50.2492 31.5216C50.5544 29.9797 50.4416 28.3843 49.9226 26.9007C49.4035 25.4172 48.497 24.0994 47.297 23.0843C46.0971 22.0691 44.6475 21.3933 43.0984 21.1271C41.5494 20.861 39.9573 21.014 38.4873 21.5704C37.0173 22.1268 35.723 23.0663 34.7384 24.2915M50.2145 28.3934H48.3833M50.3296 31.0198H48.3833" stroke="#DE593E" stroke-width="1.5" stroke-linecap="round" stroke-linejoin="round"/>
</g>
</svg>
