<svg width="46" height="45" viewBox="0 0 46 45" fill="none" xmlns="http://www.w3.org/2000/svg">
<g id="Group 3">
<path id="Vector" d="M33.2551 12.7249C33.2401 12.7099 33.2351 12.6899 33.2201 12.6749C33.2113 12.6649 33.1988 12.6624 33.1888 12.6537C31.8761 11.2878 30.3023 10.1998 28.5608 9.45421C26.8194 8.70862 24.9458 8.32069 23.0515 8.31346C21.1571 8.30623 19.2807 8.67985 17.5335 9.41213C15.7864 10.1444 14.2044 11.2204 12.8813 12.5762C12.875 12.5824 12.8651 12.5849 12.8588 12.5912C12.8476 12.6024 12.845 12.6162 12.8338 12.6287C10.2562 15.2682 8.81324 18.8114 8.81348 22.5008C8.81371 26.1902 10.2571 29.7331 12.8351 32.3724C12.8451 32.3837 12.8475 32.3974 12.86 32.4087C12.865 32.4149 12.8738 32.4162 12.8813 32.4224C14.1984 33.7718 15.7722 34.8441 17.51 35.5761C19.2477 36.3081 21.1144 36.6851 23.0001 36.6849C26.738 36.6867 30.3245 35.208 32.9751 32.5724C33.0576 32.5287 33.1426 32.4849 33.2126 32.4162C33.311 32.3192 33.3877 32.2025 33.4376 32.0737C35.8455 29.4669 37.1831 26.0486 37.1838 22.4999C37.1838 18.7112 35.6813 15.2724 33.2538 12.7249H33.2551ZM32.4526 30.2312L30.2051 27.9312C30.6401 27.3574 31.0176 26.7337 31.3101 26.0562C31.6701 25.2237 31.8976 24.3587 31.9963 23.4837H35.1688C34.9733 25.9573 34.0254 28.3119 32.4526 30.2312V30.2312ZM10.8313 23.4837H14.1725C14.26 24.2712 14.4451 25.0499 14.7438 25.8049C15.0526 26.5849 15.4738 27.2849 15.9576 27.9212L13.5926 30.2862C11.9932 28.3573 11.0288 25.9815 10.8313 23.4837V23.4837ZM13.5913 14.7149L15.9513 17.0762C15.511 17.6522 15.1417 18.2793 14.8513 18.9437C14.497 19.7625 14.2661 20.6295 14.1663 21.5162H10.8313C11.0287 19.0189 11.9926 16.6435 13.5913 14.7149V14.7149ZM29.7913 23.4837H30.0063C29.8334 24.7057 29.3406 25.8603 28.5778 26.8306C27.815 27.8008 26.8093 28.5522 25.6626 29.0087C25.1222 29.2148 24.5583 29.353 23.9838 29.4199V29.2124C23.9838 28.9515 23.8802 28.7013 23.6957 28.5168C23.5112 28.3323 23.261 28.2287 23.0001 28.2287C22.7391 28.2287 22.4889 28.3323 22.3044 28.5168C22.1199 28.7013 22.0163 28.9515 22.0163 29.2124V29.3924C21.4283 29.3093 20.8533 29.1518 20.3051 28.9237C19.4598 28.5613 18.6948 28.0351 18.0541 27.3753C17.4135 26.7156 16.9099 25.9354 16.5726 25.0799C16.3755 24.5656 16.24 24.0298 16.1688 23.4837H16.6913C16.9522 23.4837 17.2024 23.38 17.3869 23.1955C17.5714 23.011 17.6751 22.7608 17.6751 22.4999C17.6751 22.239 17.5714 21.9888 17.3869 21.8043C17.2024 21.6198 16.9522 21.5162 16.6913 21.5162H16.1788C16.2676 20.9087 16.4063 20.3037 16.6575 19.7249C17.0196 18.8797 17.5456 18.1146 18.2051 17.4739C18.8646 16.8333 19.6447 16.3297 20.5001 15.9924C20.9891 15.8045 21.4977 15.672 22.0163 15.5974V15.8287C22.0163 16.0896 22.1199 16.3398 22.3044 16.5243C22.4889 16.7088 22.7391 16.8124 23.0001 16.8124C23.261 16.8124 23.5112 16.7088 23.6957 16.5243C23.8802 16.3398 23.9838 16.0896 23.9838 15.8287V15.5637C24.6213 15.6487 25.2501 15.8137 25.8563 16.0762C26.9585 16.5479 27.9199 17.2968 28.6471 18.2501C29.3743 19.2033 29.8425 20.3285 30.0063 21.5162H29.7926C29.5316 21.5162 29.2814 21.6198 29.0969 21.8043C28.9124 21.9888 28.8088 22.239 28.8088 22.4999C28.8088 22.7608 28.9124 23.011 29.0969 23.1955C29.2814 23.38 29.5316 23.4837 29.7926 23.4837H29.7913ZM28.8613 15.6424C27.4786 14.4822 25.7794 13.7637 23.9838 13.5799V10.3299C26.6308 10.5432 29.1351 11.6175 31.1138 13.3887L28.8613 15.6412V15.6424ZM22.0163 13.6024C21.2482 13.6923 20.4949 13.8809 19.7751 14.1637C18.8626 14.5262 18.0363 15.0312 17.3051 15.6462L14.9713 13.3124C16.9375 11.5862 19.4083 10.5406 22.0163 10.3312V13.6024V13.6024ZM17.3163 29.3449C18.652 30.4669 20.2848 31.1769 22.0163 31.3887V34.6687C19.4083 34.4592 16.9375 33.4136 14.9713 31.6874L17.3163 29.3449V29.3449ZM23.9838 31.4212C25.7765 31.2423 27.4728 30.524 28.8488 29.3612L31.0788 31.6412C29.1053 33.3941 26.6148 34.4568 23.9838 34.6687V31.4212V31.4212ZM31.9901 21.5162C31.904 20.7204 31.7119 19.9397 31.4188 19.1949C31.1159 18.435 30.7104 17.72 30.2138 17.0699L32.4801 14.8062C34.0357 16.7185 34.9729 19.0587 35.1676 21.5162H31.9901ZM19.9601 6.44991C20.0921 6.45462 20.2238 6.43267 20.3471 6.38539C20.4705 6.3381 20.5831 6.26644 20.6782 6.17469C20.7733 6.08293 20.8489 5.97296 20.9006 5.85133C20.9522 5.72971 20.9789 5.59892 20.9789 5.46678C20.9789 5.33464 20.9522 5.20386 20.9006 5.08223C20.8489 4.96061 20.7733 4.85063 20.6782 4.75888C20.5831 4.66712 20.4705 4.59546 20.3471 4.54818C20.2238 4.50089 20.0921 4.47895 19.9601 4.48366C19.6991 4.48366 19.4489 4.5873 19.2644 4.77179C19.0799 4.95628 18.9763 5.2065 18.9763 5.46741C18.9763 5.72831 19.0799 5.97853 19.2644 6.16302C19.4489 6.34751 19.6991 6.45116 19.9601 6.45116V6.44991Z" fill="#6EF770"/>
<path id="Vector_2" d="M23 0C10.5925 0 0.5 10.0925 0.5 22.5C0.5 34.9075 10.5925 45 23 45C35.4075 45 45.5 34.9075 45.5 22.5C45.5 10.0925 35.4075 0 23 0ZM23 43.0337C11.6775 43.0337 2.46625 33.8213 2.46625 22.5C2.46625 11.1775 11.6787 1.96625 23 1.96625C34.3213 1.96625 43.5337 11.1787 43.5337 22.5C43.5337 33.8213 34.3213 43.0337 23 43.0337Z" fill="#6EF770"/>
<path id="Vector_3" d="M23.3302 38.8025C13.8427 38.8025 6.69016 31.685 6.69016 22.2475C6.69016 21.9866 6.58651 21.7364 6.40202 21.5519C6.21753 21.3674 5.96731 21.2638 5.70641 21.2638C5.4455 21.2638 5.19528 21.3674 5.01079 21.5519C4.8263 21.7364 4.72266 21.9866 4.72266 22.2475C4.72266 32.8063 12.7227 40.7688 23.3302 40.7688C23.5848 40.7597 23.826 40.6521 24.003 40.4688C24.18 40.2854 24.2788 40.0405 24.2788 39.7857C24.2788 39.5308 24.18 39.2859 24.003 39.1026C23.826 38.9192 23.5848 38.8116 23.3302 38.8025V38.8025ZM23.0002 4.25879C22.7394 4.25879 22.4894 4.36237 22.305 4.54674C22.1206 4.73111 22.017 4.98117 22.017 5.24191C22.017 5.50265 22.1206 5.75272 22.305 5.93709C22.4894 6.12146 22.7394 6.22504 23.0002 6.22504C32.4852 6.22504 39.6389 13.3413 39.6389 22.7788C39.6389 23.0397 39.7426 23.2899 39.927 23.4744C40.1115 23.6589 40.3617 23.7625 40.6227 23.7625C40.8836 23.7625 41.1338 23.6589 41.3183 23.4744C41.5028 23.2899 41.6064 23.0397 41.6064 22.7788C41.6064 12.22 33.6064 4.25879 23.0002 4.25879V4.25879ZM25.4589 21.5163H23.9839V20.165C23.9839 19.9041 23.8803 19.6539 23.6958 19.4694C23.5113 19.2849 23.2611 19.1813 23.0002 19.1813C22.7392 19.1813 22.489 19.2849 22.3045 19.4694C22.12 19.6539 22.0164 19.9041 22.0164 20.165V21.5163H20.5414C20.2805 21.5163 20.0303 21.6199 19.8458 21.8044C19.6613 21.9889 19.5577 22.2391 19.5577 22.5C19.5577 22.7609 19.6613 23.0112 19.8458 23.1957C20.0303 23.3801 20.2805 23.4838 20.5414 23.4838H22.0164V25.0838C22.0164 25.3447 22.12 25.5949 22.3045 25.7794C22.489 25.9639 22.7392 26.0675 23.0002 26.0675C23.2611 26.0675 23.5113 25.9639 23.6958 25.7794C23.8803 25.5949 23.9839 25.3447 23.9839 25.0838V23.4838H25.4589C25.7198 23.4838 25.97 23.3801 26.1545 23.1957C26.339 23.0112 26.4427 22.7609 26.4427 22.5C26.4427 22.2391 26.339 21.9889 26.1545 21.8044C25.97 21.6199 25.7198 21.5163 25.4589 21.5163V21.5163Z" fill="#6EF770"/>
</g>
</svg>
