<svg width="46" height="47" viewBox="0 0 46 47" fill="none" xmlns="http://www.w3.org/2000/svg">
<g id="Group 4">
<path id="Vector" d="M2.93661 17.6476C3.03871 17.6484 3.13939 17.6716 3.2316 17.7154C3.32381 17.7592 3.40532 17.8227 3.47041 17.9014C5.07429 19.8065 9.20715 22.4893 11.3686 23.5669C11.4651 23.6141 11.5463 23.6876 11.6029 23.779C11.6595 23.8703 11.6892 23.9757 11.6886 24.0832V29.0861C11.6886 29.6399 12.1411 30.0924 12.6949 30.0924H15.4314C15.6186 30.0923 15.8021 30.0403 15.9615 29.942C16.1208 29.8438 16.2498 29.7033 16.334 29.5361L17.7816 26.6621C19.528 27.0872 21.872 27.3834 23.6084 27.3834C25.7836 27.3834 27.6962 27.1709 29.4276 26.7371L30.8878 29.5486C30.9731 29.7126 31.1018 29.85 31.2598 29.9459C31.4179 30.0418 31.5992 30.0925 31.7841 30.0924H34.5143C34.7533 30.093 34.9849 30.0089 35.1679 29.8552C35.3509 29.7014 35.4737 29.4879 35.5144 29.2524L36.5995 22.9993C36.6394 22.7814 36.7419 22.5799 36.8945 22.4193C38.8697 20.3016 39.9448 17.4988 40.051 14.2586L41.2136 13.4548C41.3209 13.7761 41.509 14.0645 41.7599 14.2922C42.0108 14.5199 42.316 14.6792 42.6463 14.7549C42.9765 14.8337 43.3215 14.8265 43.6482 14.7342C43.9749 14.6418 44.2725 14.4673 44.5127 14.2273L45.2052 13.5373C45.2988 13.4439 45.373 13.333 45.4236 13.2109C45.4742 13.0888 45.5002 12.9579 45.5001 12.8257C45.5 12.6935 45.4738 12.5627 45.423 12.4406C45.3721 12.3186 45.2977 12.2078 45.204 12.1146C45.0138 11.9255 44.7565 11.8194 44.4883 11.8194C44.2201 11.8194 43.9628 11.9255 43.7726 12.1146L43.1325 12.8184C43.0368 12.5282 42.8747 12.2643 42.6593 12.0475C42.4438 11.8308 42.1808 11.6671 41.8912 11.5696C41.6015 11.469 41.2925 11.437 40.9884 11.4761C40.6843 11.5151 40.3934 11.6241 40.1385 11.7946L39.886 11.9696C38.7122 5.77784 31.4978 0.997437 22.7708 0.997437C19.708 0.997437 16.8203 1.63874 13.9663 2.97386C12.1787 1.76125 10.1347 1.24996 8.93087 1.23496C7.98704 1.22621 7.41074 1.44748 7.06321 1.90626C6.45566 2.70258 6.83819 3.88143 8.09205 6.15913C8.16609 6.29475 8.19264 6.45123 8.1675 6.60368C8.14236 6.75613 8.06695 6.89579 7.95329 7.00045C7.19327 7.71557 6.55448 8.54942 6.06188 9.46941C6.02759 9.53879 5.97707 9.59888 5.91462 9.64458C5.85216 9.69028 5.7796 9.72025 5.7031 9.73193C4.99804 9.82319 3.89544 9.80944 3.09912 9.80194L2.57783 9.79694C2.30281 9.79319 1.669 9.89195 1.20021 10.577C0.326387 11.8496 0.260132 14.9311 1.0627 16.9175C1.31522 17.5426 2.38781 17.6401 2.93786 17.6489L2.93661 17.6476ZM2.81035 11.8046L3.07662 11.8071C4.56425 11.8259 6.10438 11.8421 7.02696 11.4533C7.25948 11.3546 7.52325 11.0795 7.62951 10.8495C8.20072 9.59051 9.10664 8.51249 10.2485 7.73301C10.4594 7.59124 10.6087 7.37462 10.666 7.12699C10.7233 6.87937 10.6845 6.61921 10.5573 6.39915C10.236 5.84535 9.42717 4.44898 9.03088 3.5239C9.01788 3.49279 9.01311 3.45885 9.01703 3.42535C9.02096 3.39186 9.03345 3.35994 9.0533 3.33268C9.07315 3.30542 9.09969 3.28373 9.13036 3.26971C9.16103 3.25569 9.19479 3.24981 9.2284 3.25263C10.3585 3.37139 12.3912 3.99519 13.8413 5.46532C14.2288 5.8566 16.0602 5.2653 16.1015 5.01903C16.1427 4.77026 15.799 4.619 15.6364 4.43398C17.8922 3.48069 20.3169 2.99175 22.7658 2.99636C31.049 2.99636 38.0459 7.91178 38.0459 13.7298C38.0459 16.9276 37.0308 19.5178 35.0269 21.4292C34.8649 21.5806 34.7557 21.7799 34.7156 21.998C34.7156 21.998 34.2655 26.6734 33.6617 28.0735C33.5367 28.3623 32.5854 28.3323 32.4054 28.0735C32.0266 27.5335 30.8502 25.0807 30.8502 25.0807C30.7379 24.8688 30.5547 24.7031 30.3326 24.6127C30.1104 24.5222 29.8636 24.5126 29.6351 24.5857C27.89 25.1108 25.9186 25.3658 23.6096 25.3658C21.782 25.3658 19.1217 24.9882 17.5466 24.507C17.3212 24.434 17.0772 24.4435 16.8581 24.5337C16.639 24.6239 16.459 24.789 16.3503 24.9995C16.3503 24.9995 15.4827 27.5485 14.8026 28.0748C14.5864 28.241 13.9063 28.2673 13.715 28.0748C13.3663 27.7272 13.715 23.0368 13.715 23.0368C13.715 22.5468 13.395 22.1367 12.9112 22.0517C11.8461 21.7517 5.60809 17.8389 4.77927 16.27C4.40424 15.5574 3.61042 15.6012 2.91036 15.6412C2.86409 15.6438 2.81783 15.6467 2.7716 15.6499C2.37156 14.2023 2.52283 12.3784 2.81035 11.8046Z" fill="#E8CE3A"/>
<path id="Vector_2" d="M24.7207 6.52046C29.9487 6.52046 34.5991 10.5033 34.5991 13.6411C34.5991 14.1974 35.0529 14.6474 35.6117 14.6474C36.1705 14.6474 36.6217 14.1974 36.6217 13.6411C36.6217 9.03192 30.7262 4.50904 24.7207 4.50904C24.5882 4.50871 24.457 4.53448 24.3345 4.58487C24.2119 4.63527 24.1005 4.7093 24.0066 4.80275C23.9127 4.8962 23.8381 5.00723 23.7871 5.1295C23.7361 5.25177 23.7097 5.38289 23.7094 5.51537C23.7094 6.07042 24.1619 6.52046 24.722 6.52046H24.7207ZM10.9295 12.0272H12.7447C13.3035 12.0272 13.756 11.5771 13.756 11.0208C13.7557 10.8883 13.7292 10.757 13.6782 10.6347C13.6271 10.5123 13.5524 10.4012 13.4583 10.3078C13.3643 10.2143 13.2528 10.1403 13.1301 10.09C13.0074 10.0397 12.876 10.014 12.7434 10.0145H10.9308C10.7982 10.014 10.6668 10.0397 10.5442 10.09C10.4215 10.1403 10.3099 10.2143 10.2159 10.3078C10.1219 10.4012 10.0472 10.5123 9.99608 10.6347C9.945 10.757 9.91853 10.8883 9.91821 11.0208C9.91821 11.5759 10.3707 12.0272 10.9308 12.0272H10.9295ZM45.48 30.3487C45.475 30.2937 45.4763 30.2387 45.4638 30.185L45.4625 30.17C45.4563 30.1462 45.4387 30.13 45.4312 30.1075C45.4141 30.0601 45.3932 30.0141 45.3687 29.97C45.3487 29.93 45.3425 29.8837 45.315 29.845C45.1412 29.5924 43.9186 27.3922 39.8395 26.7272C39.7082 26.7032 39.5734 26.7056 39.443 26.7342C39.3126 26.7628 39.1892 26.8171 39.08 26.8938C38.9707 26.9706 38.8779 27.0684 38.8068 27.1814C38.7357 27.2944 38.6878 27.4204 38.666 27.5521C38.6441 27.6838 38.6486 27.8185 38.6793 27.9485C38.71 28.0784 38.7662 28.2009 38.8447 28.3089C38.9232 28.4169 39.0224 28.5082 39.1366 28.5774C39.2507 28.6467 39.3775 28.6926 39.5095 28.7124C40.9221 28.9449 41.8784 29.4337 42.531 29.9137L23.1618 35.1042L3.45015 29.8225C4.10271 29.3387 5.06279 28.8424 6.48666 28.6099C6.61709 28.5882 6.74198 28.541 6.85419 28.4711C6.9664 28.4012 7.06373 28.3098 7.14064 28.2023C7.21754 28.0947 7.27251 27.9731 7.3024 27.8443C7.3323 27.7155 7.33653 27.5821 7.31486 27.4516C7.29319 27.3212 7.24604 27.1963 7.17611 27.0841C7.10617 26.9719 7.01482 26.8746 6.90727 26.7977C6.79972 26.7207 6.67808 26.6658 6.54928 26.6359C6.42049 26.606 6.28707 26.6018 6.15664 26.6234C2.07379 27.2947 0.826178 29.5799 0.698667 29.7474C0.673665 29.7787 0.667415 29.8187 0.648663 29.8525C0.615776 29.9055 0.588143 29.9616 0.566156 30.02C0.558655 30.0425 0.541154 30.06 0.534903 30.0825V30.0887C0.519902 30.1412 0.524903 30.1962 0.519902 30.25C0.516152 30.2825 0.4999 30.31 0.4999 30.3437C0.49615 32.2164 0.96244 33.2815 1.73376 34.6991C1.47873 35.0992 1.32497 35.5704 1.32497 36.078C1.32729 36.7634 1.60146 37.4199 2.08731 37.9035C2.57316 38.387 3.231 38.658 3.91644 38.657C4.24772 38.657 4.5615 38.5895 4.85277 38.4757C9.47067 42.3823 15.8375 43.8449 20.5866 44.3687C20.7782 44.8503 21.1097 45.2635 21.5385 45.5548C21.9672 45.846 22.4735 46.002 22.9918 46.0026C23.473 46.0015 23.9443 45.8662 24.3528 45.6121C24.7613 45.3579 25.0909 44.9948 25.3045 44.5637C30.1824 44.0324 36.6905 42.5235 41.2896 38.4744C41.681 38.6285 42.104 38.6848 42.522 38.6385C42.9401 38.5922 43.3405 38.4447 43.6887 38.2088C44.0369 37.9729 44.3223 37.6557 44.5203 37.2846C44.7183 36.9135 44.8229 36.4998 44.8249 36.0792C44.8249 35.5329 44.6499 35.0279 44.3587 34.6104C45.0712 33.2777 45.5 32.2264 45.4962 30.4313C45.4962 30.4013 45.4825 30.3775 45.48 30.3487V30.3487ZM42.2335 33.499C41.548 33.498 40.8902 33.769 40.4043 34.2525C39.9185 34.736 39.6443 35.3925 39.642 36.078C39.642 36.4255 39.7133 36.7568 39.8395 37.0593C35.7392 40.6046 29.9137 41.9997 25.4108 42.5235C25.2896 42.2009 25.1052 41.9056 24.8684 41.6551C24.6317 41.4046 24.3473 41.2039 24.0319 41.0647V37.1931C24.0319 37.1131 24.0032 37.0431 23.9857 36.9681L43.3248 31.7851C43.1986 32.3502 42.971 32.894 42.6323 33.5403C42.5002 33.5165 42.3664 33.5031 42.2322 33.5003L42.2335 33.499ZM20.6441 42.3498C16.2525 41.8472 10.4808 40.5059 6.3104 37.0593C6.43541 36.7568 6.50791 36.4255 6.50791 36.078C6.5064 35.6962 6.42043 35.3195 6.25617 34.9748C6.0919 34.6302 5.85341 34.3262 5.5578 34.0846C5.26218 33.843 4.91677 33.6698 4.54633 33.5774C4.17589 33.485 3.78959 33.4758 3.41515 33.5503C3.04762 32.8577 2.8051 32.2902 2.67134 31.6976L22.0692 36.8956C22.0338 36.991 22.0136 37.0914 22.0092 37.1931V41.0409C21.406 41.2897 20.9186 41.7565 20.6441 42.3485V42.3498ZM3.34764 36.0767C3.34764 35.9259 3.40757 35.7812 3.51424 35.6745C3.62091 35.5679 3.76559 35.5079 3.91644 35.5079C4.0673 35.5079 4.21197 35.5679 4.31864 35.6745C4.42531 35.7812 4.48524 35.9259 4.48524 36.0767C4.48524 36.2276 4.42531 36.3723 4.31864 36.4789C4.21197 36.5856 4.0673 36.6455 3.91644 36.6455C3.76559 36.6455 3.62091 36.5856 3.51424 36.4789C3.40757 36.3723 3.34764 36.2276 3.34764 36.0767V36.0767ZM22.9918 43.9899C22.6793 43.9899 22.423 43.7349 22.423 43.4224C22.423 43.2715 22.483 43.1268 22.5896 43.0202C22.6963 42.9135 22.841 42.8536 22.9918 42.8536C23.1427 42.8536 23.2874 42.9135 23.394 43.0202C23.5007 43.1268 23.5606 43.2715 23.5606 43.4224C23.5606 43.7349 23.3056 43.9887 22.9918 43.9887V43.9899ZM42.2335 36.643C41.9197 36.643 41.6647 36.3893 41.6647 36.0767C41.6647 35.9259 41.7246 35.7812 41.8313 35.6745C41.9379 35.5679 42.0826 35.5079 42.2335 35.5079C42.3843 35.5079 42.529 35.5679 42.6357 35.6745C42.7423 35.7812 42.8023 35.9259 42.8023 36.0767C42.8023 36.3893 42.5473 36.643 42.2335 36.643Z" fill="#E8CE3A"/>
</g>
</svg>
